<svg xmlns="http://www.w3.org/2000/svg" viewBox="0 0 64 64" width="64" height="64">
  <!-- Main horizontal cord -->
  <path d="M8 12 Q32 8 56 12" stroke="currentColor" stroke-width="3" fill="none" stroke-linecap="round"/>
  
  <!-- Hanging cords with knots -->
  <!-- Cord 1 -->
  <path d="M14 12 Q12 28 14 52" stroke="currentColor" stroke-width="2" fill="none" stroke-linecap="round"/>
  <circle cx="13" cy="24" r="2.5" fill="currentColor"/>
  <circle cx="14" cy="38" r="2.5" fill="currentColor"/>
  
  <!-- Cord 2 -->
  <path d="M24 11 Q26 30 24 56" stroke="currentColor" stroke-width="2" fill="none" stroke-linecap="round"/>
  <circle cx="25" cy="20" r="2.5" fill="currentColor"/>
  <circle cx="24" cy="32" r="2.5" fill="currentColor"/>
  <circle cx="25" cy="44" r="2.5" fill="currentColor"/>
  
  <!-- Cord 3 (center, longer) -->
  <path d="M34 10 Q32 32 34 58" stroke="currentColor" stroke-width="2" fill="none" stroke-linecap="round"/>
  <circle cx="33" cy="26" r="2.5" fill="currentColor"/>
  <circle cx="34" cy="42" r="2.5" fill="currentColor"/>
  
  <!-- Cord 4 -->
  <path d="M44 11 Q46 28 44 54" stroke="currentColor" stroke-width="2" fill="none" stroke-linecap="round"/>
  <circle cx="45" cy="22" r="2.5" fill="currentColor"/>
  <circle cx="44" cy="36" r="2.5" fill="currentColor"/>
  <circle cx="45" cy="48" r="2.5" fill="currentColor"/>
  
  <!-- Cord 5 -->
  <path d="M52 12 Q50 26 52 48" stroke="currentColor" stroke-width="2" fill="none" stroke-linecap="round"/>
  <circle cx="51" cy="28" r="2.5" fill="currentColor"/>
  <circle cx="52" cy="40" r="2.5" fill="currentColor"/>
</svg>
